<svg xmlns="http://www.w3.org/2000/svg" width="214.86" height="200.133" viewBox="0 0 214.86 200.133"><g transform="translate(-106.143 -802.926)"><path d="M-602.9,149.733V5.268q1.712-.162,3.45-.244V149.976Q-601.185,149.895-602.9,149.733ZM-592.549,5.024q1.735.082,3.45.244V149.732q-1.712.162-3.45.244Zm-20.7,142.965V7.012q1.711-.418,3.45-.754V148.743Q-611.54,148.407-613.25,147.989ZM-582.2,6.258q1.741.336,3.449.754V147.988q-1.71.418-3.449.754Zm-41.4,138.35V10.393q1.7-.7,3.449-1.322V145.929Q-621.894,145.312-623.6,144.607ZM-571.851,9.071c1.166.413,2.312.852,3.449,1.322V144.607c-1.137.47-2.284.909-3.449,1.322Zm-62.1,130.248V15.681q1.7-1.047,3.449-2V141.318Q-632.257,140.364-633.95,139.319ZM-561.5,13.682q1.754.953,3.449,2V139.319q-1.694,1.045-3.449,2Zm-82.8,117.9V23.417q1.678-1.5,3.449-2.9V134.487Q-642.619,133.089-644.3,131.583ZM-551.15,20.513q1.769,1.4,3.449,2.9V131.582q-1.678,1.5-3.449,2.9Zm-103.5,99.6V34.891q1.642-2.264,3.449-4.39v94Q-653.006,122.371-654.648,120.109ZM-540.8,30.5q1.808,2.127,3.449,4.39v85.217q-1.642,2.264-3.449,4.39ZM-665,99.686V55.314a72.2,72.2,0,0,1,3.449-8.756v61.884A72.2,72.2,0,0,1-665,99.686Zm134.551-53.127A72.157,72.157,0,0,1-527,55.314V99.686a72.156,72.156,0,0,1-3.449,8.756Z" transform="matrix(0.719, 0.695, -0.695, 0.719, 703.585, 1261.26)" fill="#2e4748" opacity="0.5"/><path d="M733.158,629.613s5.928,11.856,11.855,11.856,5.928-11.856,11.855-11.856,5.928,11.856,11.856,11.856,5.928-11.856,11.855-11.856,5.928,11.856,11.856,11.856,5.928-11.856,11.855-11.856,5.928,11.856,11.856,11.856S828,629.613,828,629.613" transform="translate(-625.002 309.376)" fill="#386668" stroke="#2e4748" stroke-linecap="round" stroke-width="3" opacity="0.4"/></g></svg>