<svg xmlns="http://www.w3.org/2000/svg" width="202" height="128" viewBox="0 0 202 128"><path d="M127.987,66H.013C0,65.485,0,65.066,0,64.679A64.6,64.6,0,0,1,18.745,18.944a63.526,63.526,0,0,1,90.51,0A64.6,64.6,0,0,1,128,64.679c0,.431,0,.874-.013,1.318Z" transform="translate(202 128) rotate(180)" fill="#274d4e"/><g transform="translate(128 62) rotate(180)" fill="none"><path d="M64,62A64.027,64.027,0,0,1,19.167,43.884,62.577,62.577,0,0,1,0,0H128a62.577,62.577,0,0,1-19.166,43.884A64.024,64.024,0,0,1,64,62Z" stroke="none"/><path d="M 64.00118255615234 61 C 80.61073303222656 61 96.28528594970703 54.66666793823242 108.137451171875 43.16666793823242 C 119.72412109375 31.92413139343262 126.3882598876953 16.98411178588867 126.9712905883789 1 L 1.028713464736938 1 C 1.611799716949463 16.98422241210938 8.276117324829102 31.92424583435059 19.86301612854004 43.16664886474609 C 31.71541595458984 54.66666793823242 47.39065170288086 61 64.00118255615234 61 M 64.00118255615234 62 C 47.12926483154297 62 31.20668411254883 55.56639862060547 19.16666603088379 43.88434982299805 C 7.143116474151611 32.21828460693359 0.3362999856472015 16.63319969177246 0 0 L 128 0 C 127.6637191772461 16.63501739501953 120.8560638427734 32.21916580200195 108.8338165283203 43.88434982299805 C 96.79403686523438 55.56639862060547 80.87203216552734 62 64.00118255615234 62 Z" stroke="none" fill="#346364"/></g></svg>