<svg xmlns="http://www.w3.org/2000/svg" width="252" height="252" viewBox="0 0 252 252"><g transform="translate(-1789 -664)"><path d="M71,142a70.669,70.669,0,0,1-39.7-12.126A71.207,71.207,0,0,1,5.58,98.637,70.907,70.907,0,0,1,12.126,31.3,71.207,71.207,0,0,1,43.364,5.58,70.907,70.907,0,0,1,110.7,12.126a71.207,71.207,0,0,1,25.724,31.238,70.907,70.907,0,0,1-6.546,67.333,71.207,71.207,0,0,1-31.238,25.724A70.556,70.556,0,0,1,71,142ZM71,7.977A63.023,63.023,0,1,0,134.023,71,63.094,63.094,0,0,0,71,7.977Z" transform="translate(1844 716)" fill="#2e4748"/><path d="M126,252a125.412,125.412,0,0,1-70.448-21.519A126.367,126.367,0,0,1,9.9,175.045,125.835,125.835,0,0,1,21.519,55.552,126.367,126.367,0,0,1,76.955,9.9,125.835,125.835,0,0,1,196.448,21.519,126.367,126.367,0,0,1,242.1,76.955a125.835,125.835,0,0,1-11.617,119.493,126.367,126.367,0,0,1-55.436,45.65A125.211,125.211,0,0,1,126,252Zm0-237.843A111.843,111.843,0,1,0,237.843,126,111.97,111.97,0,0,0,126,14.157Z" transform="translate(1789 664)" fill="#2e4748"/></g></svg>